<svg viewBox="0 0 51 14" fill="none" xmlns="http://www.w3.org/2000/svg">
<path d="M7.72 0.939999C8.41333 0.939999 9.08667 1.05333 9.74 1.28C10.3933 1.50667 10.9733 1.83333 11.48 2.26C12 2.67333 12.4133 3.18667 12.72 3.8C13.0267 4.4 13.18 5.07333 13.18 5.82L13.02 6.78V8.1C13.02 8.19333 12.98 8.32 12.9 8.48C12.82 8.64 12.78 8.77333 12.78 8.88C12.7 9.05333 12.6267 9.22667 12.56 9.4C12.4933 9.54667 12.42 9.70667 12.34 9.88C12.26 10.04 12.1667 10.1933 12.06 10.34C12.0067 10.4467 11.9133 10.5667 11.78 10.7C11.66 10.8333 11.5133 10.96 11.34 11.08C11.18 11.2 11.0133 11.3 10.84 11.38C10.6667 11.46 10.5 11.5 10.34 11.5H9.96C9.81333 11.5 9.66667 11.52 9.52 11.56C9.37333 11.6 9.22667 11.6467 9.08 11.7C8.94667 11.74 8.82667 11.78 8.72 11.82C8.61333 11.86 8.54 11.88 8.5 11.88H7.96C7.73333 11.88 7.53333 11.9133 7.36 11.98C7.2 12.0333 7.06 12.06 6.94 12.06H6.22H4.5H4.16C4.08 12.1 4.00667 12.14 3.94 12.18C3.80667 12.2467 3.68 12.28 3.56 12.28L3 12.06H2.44L1.9 12.28C1.80667 12.28 1.68 12.2333 1.52 12.14C1.37333 12.06 1.25333 11.9733 1.16 11.88C1.10667 11.88 1.02667 11.88 0.92 11.88C0.813333 11.8667 0.706667 11.8467 0.6 11.82C0.506667 11.78 0.42 11.7267 0.34 11.66C0.26 11.58 0.22 11.4733 0.22 11.34C0.22 11.2333 0.266667 11.1333 0.36 11.04C0.453333 10.9467 0.56 10.8667 0.68 10.8C0.826667 10.72 0.986667 10.64 1.16 10.56H1.72L2.66 10.34C2.76667 10.38 2.86667 10.42 2.96 10.46C3.13333 10.5267 3.28 10.56 3.4 10.56C3.53333 10.56 3.63333 10.52 3.7 10.44C3.78 10.3467 3.83333 10.24 3.86 10.12C3.9 10 3.92 9.88 3.92 9.76C3.93333 9.62667 3.94 9.52 3.94 9.44V9.06V8.22C3.94 8.16667 3.91333 8.08667 3.86 7.98C3.83333 7.92667 3.80667 7.88 3.78 7.84V6.6C3.78 6.49333 3.80667 6.36 3.86 6.2C3.91333 6.04 3.94 5.86 3.94 5.66V4.88V3.94C3.94 3.58 3.88 3.28 3.76 3.04C3.64 2.78667 3.38667 2.66 3 2.66C2.92 2.66 2.85333 2.67333 2.8 2.7C2.74667 2.71333 2.69333 2.73333 2.64 2.76C2.6 2.77333 2.55333 2.78667 2.5 2.8C2.44667 2.81333 2.37333 2.82 2.28 2.82L1.72 2.66H1.34C1.24667 2.66 1.12667 2.62 0.98 2.54C0.846667 2.44667 0.78 2.36 0.78 2.28C0.78 2.08 0.886667 1.90667 1.1 1.76C1.32667 1.61333 1.58 1.49333 1.86 1.4C2.14 1.29333 2.41333 1.22 2.68 1.18C2.94667 1.12667 3.12667 1.1 3.22 1.1H3.56C3.66667 1.1 3.76667 1.14 3.86 1.22C3.95333 1.28667 4.05333 1.32 4.16 1.32C4.26667 1.29333 4.36667 1.26 4.46 1.22C4.54 1.19333 4.62 1.16667 4.7 1.14C4.79333 1.11333 4.87333 1.1 4.94 1.1H5.68H6.06C6.32667 1.07333 6.57333 1.04667 6.8 1.02C6.98667 0.993333 7.16667 0.973333 7.34 0.959999C7.52667 0.946666 7.65333 0.939999 7.72 0.939999ZM6.78 2.88C6.74 2.88 6.66 2.90667 6.54 2.96C6.42 3.01333 6.29333 3.08667 6.16 3.18C6.04 3.27333 5.92667 3.37333 5.82 3.48C5.72667 3.58667 5.68 3.68667 5.68 3.78C5.70667 3.80667 5.73333 3.84 5.76 3.88C5.81333 3.96 5.84 4.05333 5.84 4.16V4.72V5.82V8.28V9.22C5.89333 9.32667 5.92667 9.44 5.94 9.56C5.95333 9.68 5.96667 9.79333 5.98 9.9C6.00667 10.0067 6.04667 10.1 6.1 10.18C6.15333 10.26 6.25333 10.3133 6.4 10.34H6.62C6.66 10.34 6.72667 10.3333 6.82 10.32C6.92667 10.3067 7.03333 10.2933 7.14 10.28C7.26 10.2667 7.37333 10.2533 7.48 10.24C7.58667 10.2267 7.66667 10.22 7.72 10.22C8.29333 10.2067 8.77333 10.08 9.16 9.84C9.56 9.58667 9.88667 9.27333 10.14 8.9C10.3933 8.52667 10.58 8.12667 10.7 7.7C10.82 7.27333 10.8867 6.87333 10.9 6.5C10.9133 6.20667 10.8467 5.85333 10.7 5.44C10.5533 5.02667 10.3733 4.64667 10.16 4.3C9.94667 3.94 9.72667 3.66667 9.5 3.48C9.27333 3.28 9.09333 3.24667 8.96 3.38C8.88 3.32667 8.80667 3.27333 8.74 3.22C8.67333 3.18 8.60667 3.14 8.54 3.1C8.48667 3.06 8.44 3.04 8.4 3.04H8.22L6.78 2.88ZM23.097 5.06C23.0704 5.02 23.0437 4.97333 23.017 4.92C22.9637 4.81333 22.937 4.72667 22.937 4.66V3.72L22.757 2.6V2.22C22.757 2.07333 22.7104 1.98 22.617 1.94C22.5237 1.88667 22.4237 1.84667 22.317 1.82C22.1704 1.79333 22.037 1.76667 21.917 1.74C21.8104 1.71333 21.757 1.63333 21.757 1.5C21.757 1.38 21.7837 1.26667 21.837 1.16C21.8904 1.04 21.9504 0.933333 22.017 0.839999C22.097 0.733333 22.1837 0.653332 22.277 0.599999C22.3704 0.533332 22.457 0.499999 22.537 0.499999C22.7237 0.593333 22.9104 0.666666 23.097 0.72C23.257 0.786666 23.437 0.839999 23.637 0.879999C23.837 0.919999 24.0304 0.939999 24.217 0.939999H24.997C25.1304 0.939999 25.2837 0.926666 25.457 0.9C25.6304 0.86 25.7904 0.846666 25.937 0.859999C26.097 0.859999 26.2304 0.906666 26.337 1C26.4437 1.08 26.497 1.24667 26.497 1.5C26.537 1.63333 26.5637 1.76 26.577 1.88C26.5904 1.98667 26.5904 2.08667 26.577 2.18C26.577 2.27333 26.5504 2.34 26.497 2.38H25.937H25.537C25.377 2.38 25.2437 2.46667 25.137 2.64C25.0437 2.8 24.997 2.97333 24.997 3.16C24.9304 3.36 24.8904 3.52 24.877 3.64C24.8637 3.76 24.8704 3.85333 24.897 3.92C24.9104 4 24.9437 4.06 24.997 4.1L24.757 4.82C24.8237 4.92667 24.8637 5.04 24.877 5.16C24.9037 5.26667 24.9304 5.36667 24.957 5.46C24.9704 5.58 24.9837 5.68667 24.997 5.78C24.997 5.82 24.9837 5.88 24.957 5.96C24.9304 6.04 24.9037 6.12667 24.877 6.22C24.8504 6.31333 24.8237 6.40667 24.797 6.5C24.7704 6.59333 24.757 6.66667 24.757 6.72V7.1C24.757 7.15333 24.7504 7.22 24.737 7.3C24.7237 7.38 24.7037 7.46667 24.677 7.56C24.6504 7.66667 24.6237 7.77333 24.597 7.88C24.597 7.97333 24.6104 8.06 24.637 8.14C24.6637 8.20667 24.6904 8.27333 24.717 8.34C24.7437 8.39333 24.757 8.46 24.757 8.54C24.757 8.60667 24.757 8.68667 24.757 8.78C24.757 8.96667 24.7437 9.09333 24.717 9.16C24.637 9.24 24.597 9.37333 24.597 9.56C24.597 9.74667 24.517 9.94 24.357 10.14C24.2104 10.3267 24.0504 10.5733 23.877 10.88C23.877 11.0533 23.7904 11.2067 23.617 11.34C23.457 11.46 23.2837 11.6067 23.097 11.78C23.0037 11.8867 22.9304 11.9667 22.877 12.02C22.8237 12.0867 22.7704 12.14 22.717 12.18C22.677 12.22 22.6237 12.2533 22.557 12.28C22.5037 12.3067 22.4237 12.34 22.317 12.38C21.877 12.58 21.4437 12.6933 21.017 12.72C20.5904 12.76 20.2837 12.78 20.097 12.78C19.8704 12.78 19.617 12.7667 19.337 12.74C19.0704 12.7133 18.797 12.6667 18.517 12.6C18.2504 12.5333 17.9904 12.4533 17.737 12.36C17.4837 12.2667 17.2704 12.1467 17.097 12L16.697 11.44C16.5904 11.2933 16.497 11.1333 16.417 10.96C16.337 10.7867 16.2637 10.6267 16.197 10.48C16.117 10.3067 16.0437 10.1267 15.977 9.94V8.6C15.977 8.41333 15.937 8.22667 15.857 8.04C15.7904 7.84 15.757 7.58667 15.757 7.28V6.16C15.7837 6.02667 15.817 5.89333 15.857 5.76C15.8837 5.65333 15.9104 5.54667 15.937 5.44C15.9637 5.33333 15.977 5.26 15.977 5.22C15.937 5.03333 15.897 4.86667 15.857 4.72C15.7904 4.42667 15.757 4.22 15.757 4.1C15.7837 3.99333 15.817 3.88667 15.857 3.78C15.8837 3.68667 15.9104 3.6 15.937 3.52C15.9637 3.44 15.977 3.37333 15.977 3.32V2.22C15.977 2.12667 15.897 2.04667 15.737 1.98C15.577 1.91333 15.397 1.86 15.197 1.82C15.0104 1.76667 14.837 1.72 14.677 1.68C14.5304 1.62667 14.4637 1.56667 14.477 1.5C14.477 1.32667 14.5504 1.15333 14.697 0.98C14.8437 0.806667 15.0104 0.72 15.197 0.72L16.157 0.499999H16.537C16.617 0.499999 16.7704 0.539999 16.997 0.62C17.237 0.686666 17.457 0.72 17.657 0.72H19.317C19.5037 0.72 19.6104 0.76 19.637 0.839999C19.677 0.919999 19.697 0.986666 19.697 1.04C19.697 1.33333 19.657 1.54 19.577 1.66C19.497 1.76667 19.3904 1.84 19.257 1.88C19.137 1.90667 19.0037 1.92 18.857 1.92C18.7237 1.92 18.5904 1.95333 18.457 2.02C18.337 2.07333 18.237 2.18667 18.157 2.36C18.077 2.52 18.037 2.78667 18.037 3.16C18.037 3.2 18.0437 3.26667 18.057 3.36C18.0704 3.44 18.0837 3.53333 18.097 3.64C18.1237 3.73333 18.1437 3.82667 18.157 3.92C18.1837 4 18.197 4.06 18.197 4.1V4.66V7.66V9C18.117 9.17333 18.097 9.28667 18.137 9.34C18.177 9.38 18.197 9.45333 18.197 9.56L18.417 10.1C18.5504 10.3 18.677 10.46 18.797 10.58C18.917 10.7 19.0504 10.8 19.197 10.88C19.3437 10.9467 19.517 10.9933 19.717 11.02C19.917 11.0467 20.1704 11.06 20.477 11.06C20.5704 11.06 20.7304 11.02 20.957 10.94C21.1837 10.86 21.397 10.7667 21.597 10.66C21.637 10.5667 21.697 10.48 21.777 10.4C21.8704 10.3067 21.977 10.1867 22.097 10.04C22.217 9.88 22.3437 9.68 22.477 9.44C22.6237 9.18667 22.777 8.85333 22.937 8.44V7.66C22.937 7.56667 22.9437 7.39333 22.957 7.14C22.9704 6.88667 22.9837 6.62 22.997 6.34C23.0237 6.06 23.0437 5.8 23.057 5.56C23.0837 5.30667 23.097 5.14 23.097 5.06ZM29.3422 2.5C29.3422 2.28667 29.3755 2.10667 29.4422 1.96C29.5222 1.8 29.6222 1.66 29.7422 1.54C29.8755 1.42 30.0222 1.30667 30.1822 1.2C30.3422 1.09333 30.5089 0.986666 30.6822 0.879999C31.0422 0.653333 31.3689 0.466666 31.6622 0.319999C31.9689 0.173333 32.3422 0.0999994 32.7822 0.0999994C33.0622 0.0999994 33.3089 0.106666 33.5222 0.119999C33.7355 0.119999 33.9555 0.206666 34.1822 0.379999C34.3689 0.526666 34.4955 0.686666 34.5622 0.859999C34.6422 1.03333 34.6822 1.24667 34.6822 1.5C34.6822 1.63333 34.6555 1.77333 34.6022 1.92C34.5622 2.06667 34.4955 2.2 34.4022 2.32C34.3222 2.44 34.2155 2.54 34.0822 2.62C33.9622 2.68667 33.8289 2.72 33.6822 2.72C33.5355 2.72 33.4155 2.68667 33.3222 2.62C33.2422 2.54 33.1622 2.46 33.0822 2.38C33.0155 2.3 32.9355 2.22667 32.8422 2.16C32.7622 2.08 32.6555 2.04 32.5222 2.04C32.3489 2.04 32.1689 2.06 31.9822 2.1C31.8089 2.12667 31.6489 2.18 31.5022 2.26C31.3555 2.34 31.2355 2.44 31.1422 2.56C31.0489 2.68 31.0022 2.82667 31.0022 3C31.0022 3.16 31.0555 3.27333 31.1622 3.34C31.2689 3.40667 31.3955 3.45333 31.5422 3.48C31.7022 3.50667 31.8689 3.53333 32.0422 3.56C32.2155 3.58667 32.3755 3.64 32.5222 3.72C32.8822 3.90667 33.1889 4.07333 33.4422 4.22C33.7089 4.36667 34.0089 4.55333 34.3422 4.78C34.4622 4.84667 34.5689 4.90667 34.6622 4.96C34.7555 5 34.8422 5.04 34.9222 5.08C35.0155 5.12 35.1089 5.16667 35.2022 5.22C35.2955 5.27333 35.4022 5.34667 35.5222 5.44C35.9089 5.74667 36.2155 6.06 36.4422 6.38C36.6822 6.68667 36.8022 7.09333 36.8022 7.6V8.06C36.8022 8.22 36.8289 8.36667 36.8822 8.5C36.9355 8.62 36.9622 8.76667 36.9622 8.94C36.9622 9.22 36.9022 9.44667 36.7822 9.62C36.6755 9.79333 36.5689 9.99333 36.4622 10.22C36.4355 10.3267 36.4355 10.42 36.4622 10.5C36.4889 10.5667 36.4689 10.64 36.4022 10.72C36.3489 10.8933 36.2622 11.0067 36.1422 11.06C36.0222 11.1133 35.9089 11.2067 35.8022 11.34C35.6822 11.4467 35.5689 11.54 35.4622 11.62C35.3555 11.7 35.2489 11.78 35.1422 11.86C35.0355 11.9267 34.9222 11.9933 34.8022 12.06C34.6955 12.1267 34.5622 12.2 34.4022 12.28C34.1489 12.4267 33.9222 12.5267 33.7222 12.58C33.5222 12.6467 33.2889 12.7133 33.0222 12.78C32.9289 12.8067 32.8489 12.8467 32.7822 12.9C32.7155 12.9667 32.6289 13 32.5222 13C32.4022 13 32.3089 12.9867 32.2422 12.96C32.1755 12.9467 32.1022 12.94 32.0222 12.94C31.8222 12.94 31.6622 12.96 31.5422 13C31.4355 13.04 31.2955 13.06 31.1222 13.06C31.0155 13.06 30.9289 13.0333 30.8622 12.98C30.8089 12.94 30.7289 12.9067 30.6222 12.88C30.4755 12.8267 30.3422 12.8 30.2222 12.8C30.1155 12.8133 29.9889 12.8067 29.8422 12.78C29.6955 12.78 29.5755 12.7333 29.4822 12.64C29.3889 12.56 29.2689 12.4733 29.1222 12.38C28.9755 12.3 28.8355 12.24 28.7022 12.2C28.5689 12.1733 28.4289 12.0867 28.2822 11.94C28.1355 11.86 28.0555 11.76 28.0422 11.64C28.0289 11.5067 27.9822 11.3667 27.9022 11.22C27.7955 10.9933 27.7022 10.82 27.6222 10.7C27.5422 10.5667 27.5022 10.3667 27.5022 10.1C27.5022 9.71333 27.6489 9.38 27.9422 9.1C28.2355 8.80667 28.5889 8.66 29.0022 8.66C29.2555 8.66 29.4955 8.72 29.7222 8.84C29.9489 8.94667 30.0622 9.11333 30.0622 9.34C30.0622 9.42 30.0489 9.48 30.0222 9.52C30.0089 9.56 30.0022 9.60667 30.0022 9.66C30.0022 9.75333 30.0222 9.82667 30.0622 9.88C30.1022 9.93333 30.1222 9.99333 30.1222 10.06C30.1222 10.0867 30.1089 10.1267 30.0822 10.18C30.0689 10.22 30.0622 10.2533 30.0622 10.28C30.0622 10.48 30.1155 10.6533 30.2222 10.8C30.3289 10.9333 30.4622 11.0533 30.6222 11.16C30.7955 11.2533 30.9889 11.3267 31.2022 11.38C31.4155 11.42 31.6289 11.44 31.8422 11.44C32.2689 11.44 32.6555 11.34 33.0022 11.14C33.3622 10.94 33.6822 10.6733 33.9622 10.34C34.1222 10.1667 34.2555 9.98667 34.3622 9.8C34.4689 9.61333 34.5222 9.38 34.5222 9.1C34.5222 8.94 34.4822 8.79333 34.4022 8.66C34.3222 8.51333 34.2822 8.36667 34.2822 8.22C34.2822 8.15333 34.2889 8.12 34.3022 8.12C34.3289 8.10667 34.3422 8.08667 34.3422 8.06C34.3422 7.84667 34.2822 7.67333 34.1622 7.54C34.0555 7.39333 33.9155 7.26667 33.7422 7.16C33.5689 7.05333 33.3755 6.95333 33.1622 6.86C32.9622 6.76667 32.7622 6.66667 32.5622 6.56C32.5089 6.53333 32.4622 6.48667 32.4222 6.42C32.3955 6.35333 32.3489 6.30667 32.2822 6.28C32.1489 6.21333 32.0155 6.18 31.8822 6.18C31.7489 6.16667 31.6222 6.10667 31.5022 6C31.3955 5.93333 31.3222 5.86667 31.2822 5.8C31.2422 5.72 31.1689 5.64 31.0622 5.56C30.9155 5.49333 30.7822 5.46 30.6622 5.46C30.5555 5.44667 30.4289 5.38667 30.2822 5.28C30.2022 5.18667 30.1289 5.10667 30.0622 5.04C30.0089 4.97333 29.9555 4.88667 29.9022 4.78C29.7955 4.64667 29.6622 4.54 29.5022 4.46C29.3555 4.38 29.2822 4.24 29.2822 4.04V3.54C29.2822 3.46 29.2755 3.38 29.2622 3.3C29.2489 3.22 29.2422 3.13333 29.2422 3.04C29.2422 2.98667 29.2489 2.94667 29.2622 2.92C29.2755 2.88 29.2822 2.83333 29.2822 2.78C29.2822 2.71333 29.2889 2.66 29.3022 2.62C29.3289 2.56667 29.3422 2.52667 29.3422 2.5ZM50.3911 0.319999C50.4311 0.319999 50.4711 0.373332 50.5111 0.479999C50.5644 0.573333 50.6111 0.686666 50.6511 0.82C50.6911 0.953333 50.7244 1.08667 50.7511 1.22C50.7778 1.35333 50.7911 1.44667 50.7911 1.5V2.94C50.7911 2.99333 50.7844 3.09333 50.7711 3.24C50.7711 3.38667 50.7511 3.54 50.7111 3.7C50.6844 3.84667 50.6311 3.98 50.5511 4.1C50.4711 4.22 50.3644 4.28 50.2311 4.28C50.0044 4.28 49.8378 4.23333 49.7311 4.14C49.6378 4.03333 49.5644 3.90667 49.5111 3.76C49.4711 3.6 49.4378 3.43333 49.4111 3.26C49.3844 3.07333 49.3378 2.90667 49.2711 2.76C49.2044 2.6 49.0978 2.47333 48.9511 2.38C48.8178 2.27333 48.6111 2.22 48.3311 2.22H47.2311C47.1644 2.22 47.0911 2.22667 47.0111 2.24C46.9311 2.25333 46.8578 2.27333 46.7911 2.3C46.7111 2.32667 46.6311 2.35333 46.5511 2.38C46.2711 2.38 46.0511 2.47333 45.8911 2.66C45.7444 2.83333 45.6711 3.05333 45.6711 3.32V4.28C45.6711 4.38667 45.6644 4.48667 45.6511 4.58C45.6511 4.66 45.6911 4.74 45.7711 4.82L45.6711 5.6V8.84C45.6711 9.10667 45.6911 9.32667 45.7311 9.5C45.7711 9.66 45.8244 9.79333 45.8911 9.9C45.9578 10.0067 46.0311 10.1 46.1111 10.18C46.1911 10.2467 46.2644 10.3133 46.3311 10.38C46.5311 10.4467 46.7111 10.5133 46.8711 10.58C47.0311 10.6333 47.2244 10.66 47.4511 10.66C47.8511 10.7267 48.1511 10.8533 48.3511 11.04C48.5511 11.2133 48.6578 11.4 48.6711 11.6C48.6844 11.7867 48.6111 11.96 48.4511 12.12C48.2911 12.2933 48.0511 12.4 47.7311 12.44C47.6111 12.44 47.4911 12.42 47.3711 12.38C47.2644 12.34 47.1578 12.3067 47.0511 12.28C46.9311 12.2667 46.7978 12.26 46.6511 12.26C46.5044 12.26 46.3511 12.2533 46.1911 12.24C46.0444 12.24 45.8978 12.2267 45.7511 12.2C45.6178 12.1733 45.4978 12.1267 45.3911 12.06H45.2711H43.4911C43.4111 12.06 43.2444 12.0933 42.9911 12.16C42.7511 12.24 42.4778 12.28 42.1711 12.28C41.9578 12.28 41.7644 12.2733 41.5911 12.26C41.4444 12.2467 41.2911 12.2333 41.1311 12.22C40.9844 12.22 40.8844 12.22 40.8311 12.22C40.7644 12.22 40.7111 12.2467 40.6711 12.3C40.6311 12.3533 40.4978 12.38 40.2711 12.38C40.2444 12.3667 40.2178 12.34 40.1911 12.3C40.1644 12.2733 40.1444 12.24 40.1311 12.2C40.1178 12.1733 40.1111 12.1267 40.1111 12.06C40.1644 11.9133 40.2311 11.7667 40.3111 11.62C40.3778 11.5 40.4511 11.3733 40.5311 11.24C40.6244 11.1067 40.7244 10.9867 40.8311 10.88C41.0178 10.8133 41.1911 10.7533 41.3511 10.7C41.4844 10.6467 41.6111 10.6 41.7311 10.56C41.8644 10.52 41.9511 10.5 41.9911 10.5L42.9511 10.28C43.0444 10.28 43.1178 10.22 43.1711 10.1C43.2244 9.96667 43.2644 9.82667 43.2911 9.68C43.3178 9.50667 43.3311 9.3 43.3311 9.06V6.94C43.3311 6.88667 43.3578 6.79333 43.4111 6.66L43.4911 6.5V3.94C43.4911 3.83333 43.4978 3.72667 43.5111 3.62C43.5378 3.51333 43.5511 3.41333 43.5511 3.32C43.5511 3.28 43.5311 3.22 43.4911 3.14C43.4511 3.06 43.3978 2.98 43.3311 2.9C43.2644 2.82 43.1844 2.75333 43.0911 2.7C43.0111 2.63333 42.9244 2.6 42.8311 2.6H40.6111C40.3311 2.6 40.1111 2.65333 39.9511 2.76C39.8044 2.85333 39.6911 2.98 39.6111 3.14C39.5311 3.28667 39.4711 3.45333 39.4311 3.64C39.3911 3.81333 39.3378 3.98 39.2711 4.14C39.2178 4.28667 39.1378 4.41333 39.0311 4.52C38.9244 4.61333 38.7644 4.66 38.5511 4.66C38.3511 4.66 38.2044 4.58667 38.1111 4.44C38.0311 4.28 37.9911 4.11333 37.9911 3.94C37.9911 3.88667 37.9978 3.80667 38.0111 3.7C38.0244 3.58 38.0378 3.46 38.0511 3.34C38.0778 3.22 38.0978 3.10667 38.1111 3C38.1378 2.89333 38.1511 2.82 38.1511 2.78L38.3911 1.82C38.3911 1.78 38.3978 1.69333 38.4111 1.56C38.4378 1.41333 38.4711 1.26 38.5111 1.1C38.5644 0.939999 38.6244 0.799999 38.6911 0.679999C38.7578 0.559999 38.8378 0.499999 38.9311 0.499999C39.1044 0.499999 39.2378 0.533332 39.3311 0.599999C39.4378 0.666666 39.5511 0.74 39.6711 0.82C39.7511 0.886666 39.8311 0.94 39.9111 0.98C40.0044 1.02 40.1244 1.04 40.2711 1.04C40.3511 1.04 40.4711 1.02667 40.6311 1C40.7911 0.959999 40.9111 0.939999 40.9911 0.939999H41.3911C41.4311 0.966666 41.4778 0.986667 41.5311 1C41.5844 1 41.6444 1.00667 41.7111 1.02C41.7778 1.03333 41.8511 1.04 41.9311 1.04H44.9511L45.4911 0.939999L46.0511 1.04C46.3311 1.04 46.6178 1.02667 46.9111 1C47.2178 0.959999 47.5044 0.939999 47.7711 0.939999H48.7311C48.9711 0.939999 49.1844 0.906666 49.3711 0.839999C49.5578 0.773333 49.7178 0.706666 49.8511 0.64C49.9978 0.56 50.1111 0.486666 50.1911 0.419999C50.2844 0.353332 50.3511 0.319999 50.3911 0.319999Z" fill="#C0AC9F"/>
</svg>
