<svg viewBox="0 0 24 24" fill="none" xmlns="http://www.w3.org/2000/svg">
<path d="M20.822 7.431C20.635 7.161 20.328 7 20 7H6.333L5.179 4.23C4.867 3.482 4.143 3 3.333 3H1V5H3.333L8.077 16.385C8.232 16.757 8.596 17 9 17H17C17.417 17 17.79 16.741 17.937 16.352L20.937 8.352C21.052 8.044 21.009 7.7 20.822 7.431Z" fill="#C0AC9F"/>
<path d="M9.5 21C10.3284 21 11 20.3284 11 19.5C11 18.6716 10.3284 18 9.5 18C8.67157 18 8 18.6716 8 19.5C8 20.3284 8.67157 21 9.5 21Z" fill="#C0AC9F"/>
<path d="M16.5 21C17.3284 21 18 20.3284 18 19.5C18 18.6716 17.3284 18 16.5 18C15.6716 18 15 18.6716 15 19.5C15 20.3284 15.6716 21 16.5 21Z" fill="#C0AC9F"/>
</svg>
